Coordinates
version=1
nRows=8
nColumns=40
inDegrees=yes

Units are S.I. units (second, meters, Newtons, ...)
Angles are in degrees.

endheader
time	pelvis_tilt	pelvis_list	pelvis_rotation	pelvis_tx	pelvis_ty	pelvis_tz	hip_flexion_r	hip_adduction_r	hip_rotation_r	knee_angle_r	knee_angle_r_beta	ankle_angle_r	subtalar_angle_r	mtp_angle_r	hip_flexion_l	hip_adduction_l	hip_rotation_l	knee_angle_l	knee_angle_l_beta	ankle_angle_l	subtalar_angle_l	mtp_angle_l	lumbar_extension	lumbar_bending	lumbar_rotation	arm_flex_r	arm_add_r	arm_rot_r	elbow_flex_r	pro_sup_r	wrist_flex_r	wrist_dev_r	arm_flex_l	arm_add_l	arm_rot_l	elbow_flex_l	pro_sup_l	wrist_flex_l	wrist_dev_l
      0.00000000	     -3.26085957	     25.56205273	     77.28360451	      0.52037033	      1.00788283	     -1.03140190	     -7.68520939	    -12.10693421	      9.32536505	     66.13678818	      1.15430471	     -1.14691758	      0.00000000	      0.00000000	    -17.12949393	      8.02768352	    -12.26943049	     11.46847976	      0.20016273	     11.02673205	      0.00000000	      0.00000000	    -36.18846234	    -10.18387416	      4.85188378	      2.96196844	    -11.90741382	     -3.91970296	    145.34882254	     86.98295667	      0.00000000	      0.00000000	     -1.10741347	     -8.34017129	      3.92922505	    148.52839530	      1.15888599	      0.00000000	      0.00000000
      0.01000000	     -2.79680370	     25.25664711	     77.23326693	      0.52020331	      1.00960442	     -1.03065516	     -6.07446588	    -10.94402949	      9.66038411	     66.22650566	      1.15587058	      0.04271404	      0.00000000	      0.00000000	    -17.88755753	      7.72493070	    -11.92673741	     10.84718068	      0.18931902	     11.18788474	      0.00000000	      0.00000000	    -36.10795430	     -9.64608353	      4.73033211	      3.06620249	    -11.79372240	     -3.86028896	    145.28500991	     86.96708932	      0.00000000	      0.00000000	     -0.87165121	     -8.79242822	      4.00300068	    148.56896077	      1.20455292	      0.00000000	      0.00000000
      0.02000000	     -2.35507138	     24.89643919	     77.14604459	      0.51955760	      1.01156370	     -1.03040604	     -4.17920107	     -9.79416127	      9.93105562	     65.97003965	      1.15139440	      1.52575378	      0.00000000	      0.00000000	    -18.95079943	      7.55121473	    -11.78761507	      9.90988489	      0.17296012	     11.42102996	      0.00000000	      0.00000000	    -35.90486827	     -9.07390536	      4.63552125	      3.08670075	    -11.77626038	     -3.79872212	    145.23536961	     87.02766615	      0.00000000	      0.00000000	     -0.59974021	     -9.27056604	      4.09483301	    148.57634526	      1.18246949	      0.00000000	      0.00000000
      0.03000000	     -2.11635447	     24.47783361	     77.24064107	      0.51861911	      1.01300672	     -1.03032631	     -2.47553650	     -9.05527173	      9.87062228	     65.31951078	      1.14004053	      2.40764053	      0.00000000	      0.00000000	    -19.75261054	      7.47992641	    -11.66707014	      9.06564220	      0.15822531	     11.43677266	      0.00000000	      0.00000000	    -35.63841193	     -8.60275737	      4.40957442	      2.95309039	    -11.77931101	     -3.71779705	    145.30865962	     86.98780832	      0.00000000	      0.00000000	     -0.42269415	     -9.68036418	      4.18395155	    148.62260659	      1.19779935	      0.00000000	      0.00000000
      0.04000000	     -1.41353510	     24.01512905	     77.17332558	      0.51793936	      1.01490076	     -1.02952611	     -0.85245377	     -7.45632192	     10.19665327	     64.39788163	      1.12395507	      3.90889429	      0.00000000	      0.00000000	    -20.68559565	      6.97760615	    -11.29996237	      8.03114048	      0.14016984	     11.32764419	      0.00000000	      0.00000000	    -35.48986631	     -7.76179997	      4.39579918	      2.94602885	    -11.87970972	     -3.55069219	    145.25577107	     86.96865274	      0.00000000	      0.00000000	     -0.13108147	     -9.87053325	      4.24103278	    148.59829774	      1.22939858	      0.00000000	      0.00000000
      0.05000000	     -0.70366266	     24.07959060	     77.14043244	      0.51730990	      1.01702856	     -1.02967308	     -0.25220477	     -6.31872308	     10.08083896	     62.64390709	      1.09334243	      5.45828467	      0.00000000	      0.00000000	    -22.39798909	      6.59181296	    -11.26046684	      6.68046411	      0.11659609	     11.27323467	      0.00000000	      0.00000000	    -35.77463247	     -6.97488049	      4.33935554	      2.96230308	    -12.04892333	     -3.57105749	    145.33262202	     87.14528280	      0.00000000	      0.00000000	      0.06346136	    -10.09774402	      4.27198395	    148.64617836	      1.22386635	      0.00000000	      0.00000000
      0.06000000	     -0.48616272	     23.55220749	     77.28148746	      0.51667725	      1.01787845	     -1.02943946	      1.26226878	     -5.58043517	      9.98002125	     60.95075342	      1.06379133	      6.34401928	      0.00000000	      0.00000000	    -23.14731914	      6.51552272	    -10.98099153	      5.70242303	      0.09952606	     11.32158824	      0.00000000	      0.00000000	    -35.41304230	     -6.51252189	      4.13620797	      2.90715279	    -12.12051879	     -3.38782691	    145.30220746	     87.13616750	      0.00000000	      0.00000000	      0.24379181	    -10.39925250	      4.26992352	    148.67976539	      1.23876774	      0.00000000	      0.00000000
      0.07000000	     -0.17607178	     23.12443264	     77.40149823	      0.51620845	      1.01858927	     -1.02941698	      2.45144943	     -4.79686078	      9.88688208	     58.78870050	      1.02605639	      7.39235240	      0.00000000	      0.00000000	    -24.09196018	      6.37382876	    -10.70464171	      4.62749085	      0.08076495	     11.24345571	      0.00000000	      0.00000000	    -35.14534780	     -5.98641166	      3.97071607	      2.79917767	    -12.21233170	     -3.09190870	    145.29385743	     87.17335634	      0.00000000	      0.00000000	      0.37838010	    -10.70084723	      4.25841461	    148.73986110	      1.23301788	      0.00000000	      0.00000000
